<svg width="56" height="64" viewBox="0 0 56 64" fill="none" xmlns="http://www.w3.org/2000/svg">
<path fill-rule="evenodd" clip-rule="evenodd" d="M0.137497 15.9396L27.7242 0L55.5087 16V47.9866L27.8415 64L0 48.047L0.137497 15.9396ZM13.8938 31.9994V23.9809L27.7308 15.9725L41.6146 23.9876L48.5666 19.9734L27.7509 7.95408L6.93176 19.9734L6.95188 35.9834L13.8938 31.9994ZM41.628 40.0046L41.6113 31.9895L48.5599 27.9987V44.0088L27.7509 56.0281L6.94515 44.0188L13.8603 40.0046L27.7509 48.023L41.628 40.0046Z" fill="#111111"/>
<path d="M20.8526 27.985L27.7476 24.001L34.6928 28.0018V35.9968L27.7744 39.9976L20.8157 36.0102L20.8526 27.985Z" fill="#FF4D00"/>
</svg>
