<svg xmlns="http://www.w3.org/2000/svg" width="146" height="49" viewBox="0 0 146 49" fill="black">
<path fill-rule="evenodd" clip-rule="evenodd" d="M0.105271 12.2038L21.2263 0L42.4988 12.25V36.7397L21.3162 49L0 36.7859L0.105271 12.2038ZM10.6375 24.5V18.3609L21.2314 12.2295L31.8613 18.366L37.1839 15.2926L21.2468 6.09033L5.30721 15.2926L5.32262 27.5503L10.6375 24.5ZM31.8715 30.6288L31.8587 24.4923L37.1788 21.4369V33.6946L21.2468 42.8968L5.31746 33.7023L10.6118 30.6288L21.2468 36.768L31.8715 30.6288Z" fill="black"/>
<path d="M15.9653 21.4265L21.2442 18.3762L26.5617 21.4394V27.5605L21.2648 30.6237L15.937 27.5708L15.9653 21.4265Z" fill="#FF4D00"/>
<path d="M49.9962 18.2273H52.135C52.2865 19.4315 52.7692 20.4329 54.7925 20.4329C56.1122 20.4329 57.0494 19.6986 57.0494 18.5945C57.0494 17.4904 56.4974 17.0745 54.5588 16.7561C51.7011 16.371 50.348 15.5031 50.348 13.2616C50.348 11.3051 52.0195 9.83643 54.5101 9.83643C57.0006 9.83643 58.6208 11.0072 58.8544 13.2975H56.8158C56.5975 12.0446 55.8786 11.5079 54.5101 11.5079C53.1415 11.5079 52.4534 12.1601 52.4534 13.0793C52.4534 14.0473 52.8539 14.5326 54.926 14.833C57.7349 15.2181 59.1882 16.0192 59.1882 18.4096C59.1882 20.4817 57.4345 22.1018 54.7925 22.1018C51.5342 22.1018 50.1631 20.4817 49.9962 18.2248V18.2273Z" fill="black"/>
<path d="M62.9908 11.7416H59.6658V9.98792H68.5574V11.7416H65.2323V21.9375H62.9934V11.7416H62.9908Z" fill="black"/>
<path d="M73.5565 9.98792H75.7955V21.9375H73.554V9.98792H73.5565Z" fill="black"/>
<path d="M77.7597 13.1974H79.7829V14.5839C80.2014 13.7315 81.1694 13.0126 82.6073 13.0126C84.3609 13.0126 85.5985 14.0319 85.5985 16.4377V21.9375H83.5753V16.6226C83.5753 15.3029 83.0412 14.6995 81.837 14.6995C80.6995 14.6995 79.7803 15.4004 79.7803 16.7895V21.9375H77.7571V13.1974H77.7597Z" fill="black"/>
<path d="M87.4831 19.4983V14.7174H86.3123V13.1974H87.4831V9.98792H89.5063V13.1974H91.4295V14.7174H89.5063V19.3134C89.5063 20.0811 89.8735 20.4329 90.5077 20.4329C90.9083 20.4329 91.2112 20.3841 91.4937 20.266V21.8707C91.1753 21.9863 90.7414 22.089 90.1226 22.089C88.3843 22.089 87.4805 21.1518 87.4805 19.4983H87.4831Z" fill="black"/>
<path d="M91.902 17.6599V17.5264C91.902 14.8202 93.7584 13.0151 96.2464 13.0151C98.4185 13.0151 100.375 14.3015 100.375 17.4263V18.0117H93.974C94.0408 19.6652 94.8753 20.6024 96.3799 20.6024C97.5995 20.6024 98.2337 20.1171 98.3852 19.2647H100.342C100.057 21.1031 98.57 22.107 96.3311 22.107C93.7583 22.107 91.902 20.4201 91.902 17.6625V17.6599ZM98.3698 16.656C98.2696 15.1514 97.5019 14.4838 96.2464 14.4838C94.9908 14.4838 94.2077 15.3029 94.0074 16.656H98.3698Z" fill="black"/>
<path d="M101.194 22.238H103.233C103.4 23.1058 104.067 23.609 105.389 23.609C106.961 23.609 107.829 22.8234 107.829 21.252V19.9656C107.343 20.8001 106.257 21.5858 104.971 21.5858C102.781 21.5858 101.094 19.9477 101.094 17.4237V17.3056C101.094 14.8484 102.765 13.01 105.022 13.01C106.46 13.01 107.328 13.6622 107.831 14.53V13.1923H109.855V21.2802C109.839 23.853 108.116 25.1419 105.41 25.1419C102.704 25.1419 101.433 23.9043 101.199 22.2328L101.194 22.238ZM107.895 17.357V17.2388C107.895 15.5853 106.992 14.5994 105.538 14.5994C104.085 14.5994 103.166 15.6854 103.166 17.2722V17.4057C103.166 19.0259 104.167 20.0298 105.472 20.0298C106.876 20.0298 107.895 19.0259 107.895 17.357Z" fill="black"/>
<path d="M111.559 13.1975H113.583V14.8356C114.135 13.7315 114.954 13.0819 116.425 13.064V14.9511C114.653 14.9666 113.583 15.5366 113.583 17.3904V21.935H111.559V13.1975Z" fill="black"/>
<path d="M116.795 19.5137C116.795 17.4751 118.767 16.7382 121.273 16.7382H122.359V16.2863C122.359 15.1154 121.958 14.53 120.772 14.53C119.719 14.53 119.201 15.0307 119.101 15.9011H117.144C117.311 13.8625 118.934 13.01 120.888 13.01C122.842 13.01 124.379 13.8111 124.379 16.2015V21.935H122.39V20.8643C121.822 21.6166 121.052 22.1019 119.714 22.1019C118.109 22.1019 116.79 21.3342 116.79 19.5112L116.795 19.5137ZM122.361 18.8795V18.0117H121.324C119.786 18.0117 118.8 18.3634 118.8 19.4316C118.8 20.1659 119.201 20.6512 120.205 20.6512C121.442 20.6512 122.361 19.999 122.361 18.8795Z" fill="black"/>
<path d="M126.272 19.4983V14.7174H125.101V13.1974H126.272V9.98792H128.295V13.1974H130.218V14.7174H128.295V19.3134C128.295 20.0811 128.662 20.4329 129.296 20.4329C129.697 20.4329 130 20.3841 130.282 20.266V21.8707C129.964 21.9863 129.53 22.089 128.911 22.089C127.173 22.089 126.269 21.1518 126.269 19.4983H126.272Z" fill="black"/>
<path d="M140.827 13.1975H142.851V14.8356C143.403 13.7315 144.222 13.0819 145.693 13.064V14.9511C143.921 14.9666 142.851 15.5366 142.851 17.3904V21.935H140.827V13.1975Z" fill="black"/>
<path d="M50.1298 32.7523V32.6188C50.1298 29.0267 52.6024 26.5182 55.93 26.5182C58.6722 26.5182 60.793 27.8893 61.06 30.6957H58.8031C58.5515 29.1089 57.6657 28.2898 55.9454 28.2898C53.8399 28.2898 52.4688 29.928 52.4688 32.6008V32.7343C52.4688 35.4252 53.7552 37.012 55.9608 37.012C57.6143 37.012 58.7851 36.1775 59.0188 34.488H61.191C60.8392 37.3611 58.8005 38.817 55.9608 38.817C52.2172 38.817 50.1272 36.4265 50.1272 32.7497L50.1298 32.7523Z" fill="black"/>
<path d="M72.0955 29.9125H74.1187V31.2502C74.5373 30.4312 75.4898 29.7302 76.7762 29.7302C77.9136 29.7302 78.8149 30.2155 79.2488 31.3016C79.9164 30.2155 81.1206 29.7302 82.2067 29.7302C83.8114 29.7302 85.1132 30.7162 85.1132 33.122V38.6552H83.0899V33.2581C83.0899 31.9717 82.5379 31.4197 81.5365 31.4197C80.5352 31.4197 79.6134 32.0873 79.6134 33.425V38.6552H77.5901V33.2581C77.5901 31.9717 77.0227 31.4197 76.0367 31.4197C75.0508 31.4197 74.1136 32.0873 74.1136 33.425V38.6552H72.0903V29.9151L72.0955 29.9125Z" fill="black"/>
<path d="M86.7975 29.9125H88.8208V31.317C89.306 30.4825 90.3921 29.7302 91.6785 29.7302C93.8686 29.7302 95.5556 31.3504 95.5556 34.1747V34.3082C95.5556 37.1172 93.9354 38.8195 91.6785 38.8195C90.292 38.8195 89.2881 38.134 88.8208 37.2815V41.6439H86.7975V29.9125ZM93.4835 34.3416V34.2081C93.4835 32.2696 92.4796 31.317 91.1598 31.317C89.7554 31.317 88.754 32.2696 88.754 34.2081V34.3416C88.754 36.2981 89.7066 37.2148 91.1778 37.2148C92.649 37.2148 93.4835 36.2134 93.4835 34.3416Z" fill="black"/>
<path d="M96.1873 36.2288C96.1873 34.1901 98.1592 33.4532 100.665 33.4532H101.751V33.0014C101.751 31.8305 101.351 31.2451 100.164 31.2451C99.1118 31.2451 98.5931 31.7458 98.493 32.6162H96.5365C96.7034 30.5775 98.3261 29.7251 100.28 29.7251C102.234 29.7251 103.772 30.5262 103.772 32.9166V38.6501H101.782V37.5794C101.215 38.3317 100.444 38.817 99.1066 38.817C97.5019 38.817 96.1821 38.0492 96.1821 36.2263L96.1873 36.2288ZM101.754 35.5946V34.7268H100.717C99.1785 34.7268 98.1926 35.0785 98.1926 36.1467C98.1926 36.881 98.5931 37.3663 99.597 37.3663C100.835 37.3663 101.754 36.7141 101.754 35.5946Z" fill="black"/>
<path d="M105.436 29.9125H107.459V31.299C107.878 30.4466 108.846 29.7277 110.283 29.7277C112.037 29.7277 113.275 30.747 113.275 33.1528V38.6526H111.251V33.3377C111.251 32.018 110.717 31.4146 109.513 31.4146C108.376 31.4146 107.456 32.1155 107.456 33.5046V38.6526H105.433V29.9125H105.436Z" fill="black"/>
<path d="M117.093 37.7668L113.631 29.9125H115.822L118.145 35.5458L120.284 29.9125H122.256L117.493 41.6438H115.503L117.09 37.7668H117.093Z" fill="black"/>
<path d="M66.4314 29.7277C63.8587 29.7277 61.9355 31.5327 61.9355 34.2389V34.3724C61.9355 37.0299 63.8407 38.817 66.4134 38.817C68.9862 38.817 70.9093 37.0453 70.9093 34.3211V34.1876C70.9093 31.5147 68.9862 29.7251 66.4314 29.7251V29.7277ZM68.6139 35.5356L66.4288 36.7988L64.231 35.5381L64.2412 33.0039L66.4186 31.7458L68.6113 33.0091V35.5356H68.6139Z" fill="black"/>
<path d="M135.163 13.0203C132.591 13.0203 130.667 14.8253 130.667 17.5315V17.665C130.667 20.3225 132.573 22.1096 135.145 22.1096C137.718 22.1096 139.641 20.3379 139.641 17.6137V17.4802C139.641 14.8073 137.718 13.0177 135.163 13.0177V13.0203ZM137.346 18.8282L135.161 20.0914L132.963 18.8307L132.973 16.2965L135.151 15.0384L137.343 16.3017V18.8282H137.346Z" fill="black"/>
</svg>